<?xml version="1.0" encoding="UTF-8" standalone="no"?>
<!DOCTYPE svg PUBLIC "-//W3C//DTD SVG 1.1//EN"
 "http://www.w3.org/Graphics/SVG/1.1/DTD/svg11.dtd">
<!-- Generated by graphviz version 9.0.0 (20230911.1827)
 -->
<!-- Title: snakemake_dag Pages: 1 -->
<svg width="148pt" height="260pt"
 viewBox="0.00 0.00 148.00 260.00" xmlns="http://www.w3.org/2000/svg" xmlns:xlink="http://www.w3.org/1999/xlink">
<g id="graph0" class="graph" transform="scale(1 1) rotate(0) translate(4 256)">
<title>snakemake_dag</title>
<polygon fill="white" stroke="none" points="-4,4 -4,-256 144,-256 144,4 -4,4"/>
<!-- 0 -->
<g id="node1" class="node">
<title>0</title>
<path fill="none" stroke="#88d856" stroke-width="2" d="M90.12,-36C90.12,-36 60.12,-36 60.12,-36 54.12,-36 48.12,-30 48.12,-24 48.12,-24 48.12,-12 48.12,-12 48.12,-6 54.12,0 60.12,0 60.12,0 90.12,0 90.12,0 96.12,0 102.12,-6 102.12,-12 102.12,-12 102.12,-24 102.12,-24 102.12,-30 96.12,-36 90.12,-36"/>
<text text-anchor="middle" x="75.12" y="-14.12" font-family="sans" font-size="10.00">all</text>
</g>
<!-- 1 -->
<g id="node2" class="node">
<title>1</title>
<path fill="none" stroke="#56c1d8" stroke-width="2" d="M54.12,-108C54.12,-108 24.12,-108 24.12,-108 18.12,-108 12.12,-102 12.12,-96 12.12,-96 12.12,-84 12.12,-84 12.12,-78 18.12,-72 24.12,-72 24.12,-72 54.12,-72 54.12,-72 60.12,-72 66.12,-78 66.12,-84 66.12,-84 66.12,-96 66.12,-96 66.12,-102 60.12,-108 54.12,-108"/>
<text text-anchor="middle" x="39.12" y="-86.12" font-family="sans" font-size="10.00">qa_daily</text>
</g>
<!-- 1&#45;&gt;0 -->
<g id="edge2" class="edge">
<title>1&#45;&gt;0</title>
<path fill="none" stroke="grey" stroke-width="2" d="M48.21,-71.34C51.81,-64.34 56.04,-56.12 60.07,-48.28"/>
<polygon fill="grey" stroke="grey" stroke-width="2" points="63.07,-50.09 64.53,-39.59 56.85,-46.89 63.07,-50.09"/>
</g>
<!-- 2 -->
<g id="node3" class="node">
<title>2</title>
<path fill="none" stroke="#56d88a" stroke-width="2" d="M66.25,-180C66.25,-180 12,-180 12,-180 6,-180 0,-174 0,-168 0,-168 0,-156 0,-156 0,-150 6,-144 12,-144 12,-144 66.25,-144 66.25,-144 72.25,-144 78.25,-150 78.25,-156 78.25,-156 78.25,-168 78.25,-168 78.25,-174 72.25,-180 66.25,-180"/>
<text text-anchor="middle" x="39.12" y="-158.12" font-family="sans" font-size="10.00">combine_daily</text>
</g>
<!-- 2&#45;&gt;1 -->
<g id="edge3" class="edge">
<title>2&#45;&gt;1</title>
<path fill="none" stroke="grey" stroke-width="2" d="M39.12,-143.34C39.12,-136.75 39.12,-129.08 39.12,-121.67"/>
<polygon fill="grey" stroke="grey" stroke-width="2" points="42.63,-121.93 39.13,-111.93 35.63,-121.93 42.63,-121.93"/>
</g>
<!-- 3 -->
<g id="node4" class="node">
<title>3</title>
<path fill="none" stroke="#d8bc56" stroke-width="2" d="M59.5,-252C59.5,-252 18.75,-252 18.75,-252 12.75,-252 6.75,-246 6.75,-240 6.75,-240 6.75,-228 6.75,-228 6.75,-222 12.75,-216 18.75,-216 18.75,-216 59.5,-216 59.5,-216 65.5,-216 71.5,-222 71.5,-228 71.5,-228 71.5,-240 71.5,-240 71.5,-246 65.5,-252 59.5,-252"/>
<text text-anchor="middle" x="39.12" y="-230.12" font-family="sans" font-size="10.00">clean_daily</text>
</g>
<!-- 3&#45;&gt;2 -->
<g id="edge4" class="edge">
<title>3&#45;&gt;2</title>
<path fill="none" stroke="grey" stroke-width="2" d="M39.12,-215.34C39.12,-208.75 39.12,-201.08 39.12,-193.67"/>
<polygon fill="grey" stroke="grey" stroke-width="2" points="42.63,-193.93 39.13,-183.93 35.63,-193.93 42.63,-193.93"/>
</g>
<!-- 4 -->
<g id="node5" class="node">
<title>4</title>
<path fill="none" stroke="#d85656" stroke-width="2" d="M128,-108C128,-108 96.25,-108 96.25,-108 90.25,-108 84.25,-102 84.25,-96 84.25,-96 84.25,-84 84.25,-84 84.25,-78 90.25,-72 96.25,-72 96.25,-72 128,-72 128,-72 134,-72 140,-78 140,-84 140,-84 140,-96 140,-96 140,-102 134,-108 128,-108"/>
<text text-anchor="middle" x="112.12" y="-86.12" font-family="sans" font-size="10.00">rulegraph</text>
</g>
<!-- 4&#45;&gt;0 -->
<g id="edge1" class="edge">
<title>4&#45;&gt;0</title>
<path fill="none" stroke="grey" stroke-width="2" d="M102.79,-71.34C99.09,-64.34 94.74,-56.12 90.6,-48.28"/>
<polygon fill="grey" stroke="grey" stroke-width="2" points="93.77,-46.78 86,-39.58 87.58,-50.05 93.77,-46.78"/>
</g>
</g>
</svg>
